<?xml version="1.0" encoding="UTF-8"?>
<svg id="Layer_2" data-name="Layer 2" xmlns="http://www.w3.org/2000/svg" viewBox="0 0 101.04 60.26">
  <defs>
    <style>
      .cls-1 {
        fill: #9ca2a7;
      }
    </style>
  </defs>
  <g id="Layer_1-2" data-name="Layer 1">
    <g>
      <path class="cls-1" d="M100.63,57.3c-6.47-17.32-12.76-34.7-19.14-52.05C80.26,1.91,77.85,.05,74.18,.04c-6.17-.02-12.34,.04-18.5-.04-1.61-.02-2.52,.37-3.1,1.97-3.43,9.53-6.94,19.03-10.63,29.08,4.1,0,7.6,.09,11.1-.02,4.37-.14,7.08,1.77,8.53,5.9,2.43,6.95,5.09,13.83,7.58,20.76,.63,1.75,1.42,2.61,3.54,2.58,8.55-.15,17.1-.11,25.65-.03,2.32,.02,3.32-.17,2.29-2.93Z"/>
      <path class="cls-1" d="M39.51,30.97c-7.99,.1-15.97,0-23.96,.08-2.74,.03-5.05,1.38-6.03,3.86C6.26,43.15,3.25,51.49,0,60.17c9.98,0,19.48-.04,28.98,.03,1.66,.01,2.5-.53,3.07-2.09,2.98-8.23,6.06-16.43,9.11-24.63,.59-1.58,.6-2.54-1.64-2.51Z"/>
    </g>
  </g>
</svg>