<svg id="Raggruppa_2" data-name="Raggruppa 2" xmlns="http://www.w3.org/2000/svg" width="13.269" height="13.269" viewBox="0 0 13.269 13.269">
  <path id="Tracciato_6" data-name="Tracciato 6" d="M0,0H13.269V13.269H0ZM0,0H13.269V13.269H0Z" fill="none"/>
  <path id="Tracciato_7" data-name="Tracciato 7" d="M12.057,3H2.106A1.109,1.109,0,0,0,1,4.106v7.74a1.109,1.109,0,0,0,1.106,1.106h9.952a1.109,1.109,0,0,0,1.106-1.106V4.106A1.109,1.109,0,0,0,12.057,3ZM11.5,11.846H2.659a.554.554,0,0,1-.553-.553V4.659a.554.554,0,0,1,.553-.553H7.634V5.764a.554.554,0,0,0,.553.553h3.87v4.976A.554.554,0,0,1,11.5,11.846Z" transform="translate(-0.447 -1.341)" fill="#2271b1"/>
</svg>
