<svg id="Raggruppa_4" data-name="Raggruppa 4" xmlns="http://www.w3.org/2000/svg" width="17" height="17" viewBox="0 0 17 17">
  <path id="Tracciato_10" data-name="Tracciato 10" d="M0,0H17V17H0Z" fill="none"/>
  <circle id="Ellisse_1" data-name="Ellisse 1" cx="2" cy="2" r="2" transform="translate(6.5 6.5)" fill="#2271b1"/>
  <path id="Tracciato_11" data-name="Tracciato 11" d="M14.75,3.417H12.5l-.878-.956A1.41,1.41,0,0,0,10.585,2h-3a1.437,1.437,0,0,0-1.048.46l-.871.956H3.417A1.421,1.421,0,0,0,2,4.833v8.5A1.421,1.421,0,0,0,3.417,14.75H14.75a1.421,1.421,0,0,0,1.417-1.417v-8.5A1.421,1.421,0,0,0,14.75,3.417ZM9.083,12.625a3.542,3.542,0,1,1,3.542-3.542A3.543,3.543,0,0,1,9.083,12.625Z" transform="translate(-0.583 -0.583)" fill="#555"/>
</svg>
