<svg xmlns="http://www.w3.org/2000/svg" width="13.879" height="14.478" viewBox="0 0 13.879 14.478">
  <path id="Tracciato_24" data-name="Tracciato 24" d="M2.271,7.012A7.224,7.224,0,0,1,3.794,4.39a.429.429,0,0,1,.461-.116L5.9,4.858a.854.854,0,0,0,1.129-.649L7.337,2.5a.427.427,0,0,1,.332-.34,7.366,7.366,0,0,1,3.04,0,.427.427,0,0,1,.332.34l.313,1.709a.857.857,0,0,0,1.129.649l1.641-.584a.429.429,0,0,1,.461.116,7.225,7.225,0,0,1,1.523,2.622.425.425,0,0,1-.13.456l-1.33,1.124a.85.85,0,0,0,0,1.3l1.33,1.124a.425.425,0,0,1,.13.456,7.224,7.224,0,0,1-1.523,2.622.429.429,0,0,1-.461.116l-1.641-.584a.854.854,0,0,0-1.129.649l-.313,1.709a.427.427,0,0,1-.332.34,7.364,7.364,0,0,1-3.04,0,.427.427,0,0,1-.332-.34l-.313-1.708A.857.857,0,0,0,5.9,13.624l-1.641.584a.429.429,0,0,1-.461-.116A7.223,7.223,0,0,1,2.271,11.47a.425.425,0,0,1,.13-.456L3.731,9.89a.85.85,0,0,0,0-1.3L2.4,7.468A.425.425,0,0,1,2.271,7.012ZM7.078,9.241A2.112,2.112,0,1,0,9.19,7.129,2.112,2.112,0,0,0,7.078,9.241Z" transform="translate(-2.25 -2.002)" fill="#2271b1"/>
</svg>
