<svg xmlns="http://www.w3.org/2000/svg" width="12.555" height="12.555" viewBox="0 0 12.555 12.555">
  <g id="Raggruppa_3" data-name="Raggruppa 3" transform="translate(-1 -1)">
    <path id="Tracciato_8" data-name="Tracciato 8" d="M15.749,11.987l-4.4-2.205a.42.42,0,0,0-.607.377v4.4a.424.424,0,0,0,.615.377l4.4-2.205a.418.418,0,0,0,0-.745Z" transform="translate(-5.664 -5.082)" fill="#2271b1"/>
    <path id="Tracciato_9" data-name="Tracciato 9" d="M7.277,1a6.277,6.277,0,1,0,6.277,6.277A6.277,6.277,0,0,0,7.277,1Zm3.18,7.4-4.4,2.2a1.226,1.226,0,0,1-.561.134A1.256,1.256,0,0,1,4.239,9.478v-4.4A1.255,1.255,0,0,1,6.055,3.954l4.4,2.2a1.255,1.255,0,0,1,0,2.243Z" fill="#2271b1"/>
  </g>
</svg>
